<?xml version="1.0" encoding="utf-8"?>
<svg version="1.2" baseProfile="tiny"
	 id="svg3004" xmlns:dc="http://purl.org/dc/elements/1.1/" xmlns:cc="http://creativecommons.org/ns#" xmlns:rdf="http://www.w3.org/1999/02/22-rdf-syntax-ns#" xmlns:svg="http://www.w3.org/2000/svg"
	 xmlns="http://www.w3.org/2000/svg" xmlns:xlink="http://www.w3.org/1999/xlink" x="0px" y="0px" width="159px" height="40px"
	 viewBox="0 0 159 40" xml:space="preserve">
<g id="g3012" transform="matrix(1.25,0,0,-1.25,0,39.999922)">
	<g id="g13970" transform="translate(82.098338,18.074491)">
		<path id="path13972" fill="#44CFC0" d="M0,0c0-0.81-0.65-1.46-1.46-1.46c-0.81,0-1.46,0.65-1.46,1.46c0,0.81,0.65,1.46,1.46,1.46
			C-0.65,1.46,0,0.81,0,0"/>
	</g>
	<g id="g13974" transform="translate(79.482138,21.682391)">
		<path id="path13976" fill="#44CFC0" d="M0,0c0-0.81-0.65-1.46-1.46-1.46c-0.8,0-1.46,0.65-1.46,1.46c0,0.8,0.65,1.46,1.46,1.46
			C-0.65,1.46,0,0.8,0,0"/>
	</g>
	<g id="g13978" transform="translate(75.993838,25.678491)">
		<path id="path13980" fill="#44CFC0" d="M0,0c0-0.61-0.49-1.1-1.1-1.1c-0.61,0-1.11,0.49-1.11,1.1c0,0.61,0.49,1.11,1.11,1.11
			C-0.49,1.11,0,0.61,0,0"/>
	</g>
	<g id="g13982" transform="translate(87.625738,25.678491)">
		<path id="path13984" fill="#44CFC0" d="M0,0c0-0.61-0.49-1.1-1.1-1.1c-0.61,0-1.11,0.49-1.11,1.1c0,0.61,0.5,1.11,1.11,1.11
			C-0.49,1.11,0,0.61,0,0"/>
	</g>
	<g id="g13986" transform="translate(81.752638,21.682391)">
		<path id="path13988" fill="#44CFC0" d="M0,0c0-0.81,0.65-1.46,1.45-1.46c0.81,0,1.46,0.65,1.46,1.46c0,0.8-0.65,1.46-1.46,1.46
			C0.65,1.46,0,0.8,0,0"/>
	</g>
	<g id="g13990" transform="translate(91.131538,28.274191)">
		<path id="path13992" fill="#44CFC0" d="M0,0c0-0.53,0.43-0.97,0.97-0.97C1.5-0.97,1.93-0.53,1.93,0c0,0.53-0.43,0.97-0.97,0.97
			C0.43,0.97,0,0.53,0,0"/>
	</g>
	<g id="g13994" transform="translate(96.765338,26.875791)">
		<path id="path13996" fill="#44CFC0" d="M0,0c0-0.47,0.38-0.86,0.85-0.86c0.47,0,0.85,0.38,0.85,0.86S1.33,0.86,0.85,0.86
			C0.38,0.86,0,0.47,0,0"/>
	</g>
	<g id="g13998" transform="translate(70.810238,28.274191)">
		<path id="path14000" fill="#44CFC0" d="M0,0c0-0.53-0.43-0.97-0.97-0.97C-1.5-0.97-1.93-0.53-1.93,0c0,0.53,0.43,0.97,0.97,0.97
			C-0.43,0.97,0,0.53,0,0"/>
	</g>
	<g id="g14002" transform="translate(65.176538,26.875791)">
		<path id="path14004" fill="#44CFC0" d="M0,0c0-0.47-0.38-0.86-0.86-0.86c-0.47,0-0.85,0.38-0.85,0.86s0.39,0.86,0.85,0.86
			C-0.38,0.86,0,0.47,0,0"/>
	</g>
	<g id="g14006" transform="translate(5.196038,11.728291)">
		<path id="path14008" fill="#FFFFFF" d="M0,0c0-0.52,0.08-1.02,0.25-1.5c0.17-0.48,0.42-0.9,0.74-1.27
			C1.31-3.14,1.7-3.44,2.15-3.67C2.61-3.89,3.13-4,3.71-4C4.31-4,4.84-3.88,5.3-3.63c0.45,0.25,0.83,0.57,1.13,0.96
			C6.73-2.28,6.95-1.86,7.1-1.4C7.25-0.94,7.33-0.5,7.33-0.06c0,0.44-0.07,0.89-0.23,1.35C6.95,1.77,6.73,2.2,6.43,2.59
			C6.13,2.98,5.75,3.3,5.29,3.55c-0.46,0.25-1,0.37-1.62,0.37c-0.59,0-1.12-0.12-1.58-0.35C1.63,3.35,1.24,3.05,0.94,2.67
			c-0.31-0.38-0.54-0.8-0.7-1.26C0.08,0.94,0,0.47,0,0 M-2.91,2.67c0.18,0.44,0.45,0.9,0.8,1.4c0.35,0.49,0.8,0.96,1.34,1.39
			c0.54,0.43,1.17,0.79,1.91,1.06C1.87,6.8,2.71,6.94,3.65,6.94c1.03,0,1.98-0.19,2.86-0.56C7.38,6,8.13,5.5,8.76,4.86
			c0.63-0.63,1.12-1.38,1.47-2.23c0.35-0.85,0.53-1.74,0.53-2.67c0-0.93-0.17-1.82-0.53-2.67C9.89-3.56,9.39-4.3,8.76-4.94
			C8.13-5.57,7.38-6.08,6.51-6.46C5.63-6.83,4.68-7.02,3.64-7.02c-1.06,0-2.02,0.2-2.89,0.58c-0.87,0.39-1.62,0.9-2.23,1.54
			c-0.62,0.64-1.1,1.36-1.44,2.18C-3.27-1.9-3.44-1.06-3.44-0.2c0,0.45,0.04,0.91,0.11,1.4C-3.25,1.68-3.12,2.17-2.91,2.67"/>
	</g>
	<g id="g14010" transform="translate(22.375738,7.435391)">
		<path id="path14012" fill="#FFFFFF" d="M0,0c0.4,0,0.76,0.07,1.07,0.22C1.38,0.37,1.64,0.56,1.86,0.8
			c0.22,0.24,0.39,0.52,0.5,0.83c0.11,0.31,0.17,0.62,0.17,0.94c0,0.3-0.06,0.61-0.17,0.91C2.26,3.78,2.1,4.05,1.88,4.3
			C1.67,4.55,1.41,4.75,1.09,4.91C0.78,5.07,0.41,5.15,0,5.15c-0.41,0-0.77-0.08-1.09-0.24C-1.4,4.75-1.67,4.55-1.88,4.3
			c-0.21-0.25-0.38-0.52-0.48-0.82c-0.11-0.3-0.16-0.61-0.16-0.91c0-0.31,0.06-0.63,0.17-0.94c0.11-0.31,0.28-0.59,0.5-0.83
			c0.22-0.24,0.48-0.43,0.79-0.58C-0.75,0.07-0.4,0,0,0 M-5.42,7.62h2.84V6.51h0.02h0.04c0.3,0.39,0.71,0.73,1.22,1.02
			c0.51,0.29,1.15,0.44,1.93,0.44c0.9,0,1.66-0.18,2.28-0.53C3.52,7.08,4.03,6.64,4.43,6.1c0.4-0.54,0.68-1.13,0.85-1.78
			c0.18-0.65,0.27-1.26,0.27-1.85c0-0.73-0.12-1.41-0.37-2.05C4.94-0.22,4.6-0.78,4.16-1.26C3.73-1.74,3.21-2.12,2.61-2.4
			c-0.6-0.28-1.26-0.42-1.97-0.42c-0.46,0-0.86,0.05-1.19,0.15c-0.33,0.1-0.62,0.21-0.87,0.34c-0.25,0.13-0.45,0.27-0.61,0.41
			C-2.19-1.78-2.31-1.66-2.4-1.56v-4.27h-3.02V7.62z"/>
	</g>
	<g id="g14014" transform="translate(35.959738,11.127291)">
		<path id="path14016" fill="#FFFFFF" d="M0,0c-0.04,0.14-0.1,0.32-0.19,0.52c-0.09,0.2-0.23,0.39-0.41,0.57
			c-0.18,0.18-0.41,0.33-0.69,0.45c-0.28,0.12-0.61,0.18-1,0.18c-0.39,0-0.72-0.06-1-0.18C-3.57,1.42-3.8,1.27-3.98,1.09
			C-4.16,0.91-4.3,0.72-4.39,0.52C-4.48,0.32-4.54,0.14-4.58,0H0z M2.67-3C2.43-3.57,2.13-4.07,1.78-4.5
			C1.43-4.93,1.04-5.29,0.62-5.58c-0.85-0.61-1.81-0.91-2.87-0.91c-0.72,0-1.41,0.14-2.05,0.41c-0.64,0.27-1.21,0.65-1.7,1.14
			c-0.49,0.48-0.88,1.05-1.16,1.7C-7.46-2.6-7.6-1.9-7.6-1.15c0,0.7,0.13,1.38,0.39,2.04c0.26,0.65,0.63,1.23,1.1,1.73
			c0.47,0.5,1.03,0.9,1.68,1.2c0.65,0.31,1.36,0.46,2.12,0.46c0.77,0,1.47-0.14,2.13-0.43c0.65-0.28,1.22-0.67,1.69-1.17
			c0.47-0.5,0.84-1.09,1.11-1.76c0.27-0.67,0.4-1.39,0.4-2.15C3.02-1.44,3.01-1.6,3-1.7C2.99-1.8,2.97-1.92,2.94-2.04h-7.56
			c0.1-0.61,0.36-1.08,0.81-1.41c0.44-0.33,0.96-0.5,1.56-0.5c0.46,0,0.83,0.09,1.11,0.27C-0.87-3.49-0.62-3.27-0.42-3H2.67z"/>
	</g>
	<g id="g14018" transform="translate(39.922638,15.054991)">
		<path id="path14020" fill="#FFFFFF" d="M0,0h2.82v-1.07h0.03c0.08,0.12,0.17,0.26,0.3,0.43c0.13,0.16,0.3,0.32,0.51,0.46
			c0.21,0.14,0.48,0.27,0.79,0.37c0.32,0.1,0.69,0.16,1.14,0.16c0.49,0,0.97-0.09,1.45-0.25C7.53-0.08,7.9-0.29,8.19-0.53
			c0.13-0.12,0.27-0.26,0.41-0.43c0.14-0.16,0.26-0.37,0.37-0.63c0.11-0.25,0.2-0.56,0.27-0.92c0.07-0.36,0.11-0.79,0.11-1.28v-6.31
			H6.33v5.51c0,0.18-0.01,0.39-0.03,0.63C6.28-3.72,6.23-3.49,6.13-3.28c-0.09,0.22-0.25,0.4-0.46,0.56
			C5.45-2.57,5.15-2.49,4.74-2.49c-0.43,0-0.77-0.08-1-0.25C3.52-2.9,3.35-3.09,3.24-3.32C3.13-3.54,3.06-3.77,3.05-4.01
			C3.03-4.25,3.02-4.44,3.02-4.6v-5.49H0V0z"/>
	</g>
	<g id="g14022" transform="translate(56.675538,14.490091)">
		<path id="path14024" fill="#FFFFFF" d="M0,0c-0.03,0.11-0.05,0.24-0.08,0.39c-0.03,0.15-0.09,0.3-0.17,0.44
			c-0.09,0.14-0.21,0.25-0.36,0.34c-0.15,0.09-0.36,0.14-0.63,0.14c-0.3,0-0.57-0.1-0.82-0.29c-0.24-0.2-0.36-0.45-0.36-0.76
			c0-0.2,0.03-0.38,0.09-0.51c0.06-0.13,0.19-0.27,0.39-0.41c0.2-0.14,0.48-0.3,0.84-0.47c0.36-0.18,0.85-0.4,1.45-0.66
			c0.63-0.28,1.15-0.56,1.55-0.86c0.41-0.29,0.73-0.59,0.96-0.91c0.24-0.32,0.4-0.65,0.49-0.99c0.09-0.34,0.14-0.71,0.14-1.1
			c0-0.5-0.08-0.99-0.24-1.48C3.11-7.63,2.85-8.07,2.49-8.45C2.13-8.84,1.64-9.16,1.04-9.41C0.44-9.66-0.3-9.78-1.18-9.78
			c-0.97,0-1.77,0.14-2.4,0.43c-0.63,0.28-1.13,0.64-1.49,1.06C-5.44-7.87-5.69-7.4-5.83-6.91c-0.14,0.5-0.21,0.97-0.21,1.4v0.44
			h3.42c0-0.39,0.05-0.7,0.15-0.95c0.1-0.24,0.23-0.43,0.38-0.56c0.15-0.13,0.31-0.22,0.46-0.26c0.16-0.04,0.29-0.07,0.4-0.07
			c0.41,0,0.73,0.14,0.96,0.41c0.23,0.27,0.34,0.57,0.34,0.88c0,0.22-0.04,0.41-0.12,0.56c-0.08,0.16-0.22,0.3-0.42,0.44
			c-0.2,0.14-0.47,0.28-0.81,0.43C-1.6-4.04-2.03-3.85-2.55-3.64C-2.79-3.54-3.1-3.4-3.47-3.23C-3.84-3.05-4.2-2.81-4.55-2.52
			C-4.9-2.22-5.2-1.85-5.46-1.4c-0.25,0.45-0.38,0.99-0.38,1.62c0,0.63,0.14,1.19,0.42,1.68c0.28,0.49,0.64,0.91,1.09,1.24
			c0.45,0.34,0.95,0.6,1.51,0.77c0.56,0.18,1.12,0.26,1.69,0.26c0.67,0,1.33-0.12,1.99-0.37c0.66-0.25,1.21-0.63,1.65-1.16
			C2.7,2.41,2.85,2.17,2.97,1.93C3.09,1.7,3.18,1.47,3.24,1.25C3.3,1.02,3.34,0.81,3.35,0.6C3.37,0.4,3.39,0.19,3.4,0H0z"/>
	</g>
	<g id="g14026" transform="translate(66.385438,7.435391)">
		<path id="path14028" fill="#FFFFFF" d="M0,0c0.4,0,0.75,0.07,1.06,0.22C1.37,0.37,1.63,0.56,1.85,0.8
			c0.22,0.24,0.38,0.52,0.5,0.83c0.11,0.31,0.17,0.62,0.17,0.94c0,0.3-0.06,0.61-0.16,0.91C2.25,3.78,2.09,4.05,1.88,4.3
			C1.67,4.55,1.4,4.75,1.09,4.91C0.77,5.07,0.41,5.15,0,5.15c-0.42,0-0.78-0.08-1.1-0.24C-1.41,4.75-1.67,4.55-1.88,4.3
			C-2.1,4.05-2.26,3.78-2.37,3.47c-0.11-0.3-0.16-0.61-0.16-0.91c0-0.31,0.06-0.63,0.18-0.94c0.11-0.31,0.28-0.59,0.5-0.83
			c0.22-0.24,0.48-0.43,0.79-0.58C-0.76,0.07-0.4,0,0,0 M-5.42,7.62h2.84V6.51h0.02h0.04c0.3,0.39,0.71,0.73,1.22,1.02
			c0.51,0.29,1.15,0.44,1.93,0.44c0.9,0,1.66-0.18,2.28-0.53C3.52,7.08,4.03,6.64,4.42,6.1c0.4-0.54,0.68-1.13,0.86-1.78
			c0.17-0.65,0.26-1.26,0.26-1.85c0-0.73-0.12-1.41-0.36-2.05C4.94-0.22,4.6-0.78,4.16-1.26C3.73-1.74,3.21-2.12,2.61-2.4
			c-0.6-0.28-1.26-0.42-1.97-0.42c-0.46,0-0.86,0.05-1.19,0.15c-0.33,0.1-0.62,0.21-0.87,0.34c-0.25,0.13-0.45,0.27-0.61,0.41
			C-2.2-1.78-2.32-1.66-2.4-1.56v-4.27h-3.02V7.62z"/>
	</g>
	<g id="g14030" transform="translate(72.894238,15.054991)">
		<path id="path14032" fill="#FFFFFF" d="M0,0h2.83v-1.07h0.04c0.06,0.12,0.14,0.26,0.25,0.43c0.11,0.16,0.26,0.32,0.45,0.46
			C3.76-0.04,4,0.09,4.3,0.19c0.3,0.1,0.66,0.16,1.1,0.16v-3.04C5.05-2.7,4.73-2.73,4.44-2.78C4.14-2.83,3.89-2.92,3.68-3.06
			C3.47-3.19,3.3-3.38,3.19-3.62C3.07-3.86,3.02-4.17,3.02-4.55v-5.55H0V0z"/>
	</g>
	<path id="path14034" fill="#44CFC0" d="M82.17,4.96h-3.02v10.09h3.02V4.96z"/>
	<g id="g14036" transform="translate(83.618838,15.054991)">
		<path id="path14038" fill="#FFFFFF" d="M0,0h2.82v-1.07h0.04c0.07,0.12,0.17,0.26,0.3,0.43c0.13,0.16,0.3,0.32,0.51,0.46
			c0.21,0.14,0.48,0.27,0.79,0.37c0.31,0.1,0.69,0.16,1.14,0.16c0.48,0,0.97-0.09,1.44-0.25C7.52-0.08,7.9-0.29,8.18-0.53
			c0.13-0.12,0.27-0.26,0.41-0.43c0.14-0.16,0.26-0.37,0.37-0.63c0.11-0.25,0.2-0.56,0.27-0.92c0.08-0.36,0.11-0.79,0.11-1.28v-6.31
			H6.33v5.51c0,0.18-0.01,0.39-0.03,0.63C6.28-3.72,6.23-3.49,6.13-3.28c-0.1,0.22-0.25,0.4-0.46,0.56
			C5.45-2.57,5.15-2.49,4.75-2.49c-0.44,0-0.77-0.08-1-0.25C3.52-2.9,3.35-3.09,3.24-3.32C3.13-3.54,3.07-3.77,3.05-4.01
			C3.03-4.25,3.02-4.44,3.02-4.6v-5.49H0V0z"/>
	</g>
	<g id="g14040" transform="translate(94.492938,18.417291)">
		<path id="path14042" fill="#FFFFFF" d="M0,0h3.02v-7.02h0.04l2.8,3.66h3.58L5.64-7.8l3.69-5.65H5.91L3.06-8.6H3.02v-4.86H0V0z"/>
	</g>
	<path id="path14044" fill="#FFFFFF" d="M104.4,18.42h3.02V4.96h-3.02V18.42L104.4,18.42z"/>
	<g id="g14046" transform="translate(115.92944,11.127291)">
		<path id="path14048" fill="#FFFFFF" d="M0,0c-0.04,0.14-0.1,0.32-0.19,0.52c-0.09,0.2-0.23,0.39-0.41,0.57
			c-0.18,0.18-0.41,0.33-0.69,0.45c-0.28,0.12-0.61,0.18-1,0.18c-0.39,0-0.72-0.06-1-0.18C-3.57,1.42-3.8,1.27-3.98,1.09
			C-4.16,0.91-4.3,0.72-4.39,0.52C-4.48,0.32-4.55,0.14-4.58,0H0z M2.67-3C2.43-3.57,2.13-4.07,1.78-4.5
			C1.43-4.93,1.04-5.29,0.62-5.58c-0.85-0.61-1.8-0.91-2.87-0.91c-0.73,0-1.41,0.14-2.05,0.41c-0.64,0.27-1.21,0.65-1.7,1.14
			c-0.49,0.48-0.88,1.05-1.16,1.7C-7.46-2.6-7.6-1.9-7.6-1.15c0,0.7,0.13,1.38,0.39,2.04c0.26,0.65,0.62,1.23,1.1,1.73
			c0.47,0.5,1.04,0.9,1.68,1.2c0.65,0.31,1.35,0.46,2.12,0.46c0.76,0,1.47-0.14,2.13-0.43c0.65-0.28,1.22-0.67,1.69-1.17
			c0.47-0.5,0.84-1.09,1.11-1.76c0.26-0.67,0.4-1.39,0.4-2.15C3.02-1.44,3.01-1.6,3-1.7C2.99-1.8,2.97-1.92,2.95-2.04h-7.56
			c0.1-0.61,0.36-1.08,0.81-1.41c0.44-0.33,0.96-0.5,1.55-0.5c0.46,0,0.83,0.09,1.11,0.27C-0.87-3.49-0.62-3.27-0.42-3H2.67z"/>
	</g>
	<g id="g14050" transform="translate(119.87574,15.054991)">
		<path id="path14052" fill="#FFFFFF" d="M0,0h2.84v-1.07h0.04c0.06,0.12,0.15,0.26,0.25,0.43c0.11,0.16,0.26,0.32,0.45,0.46
			C3.76-0.04,4,0.09,4.3,0.19c0.3,0.1,0.66,0.16,1.1,0.16v-3.04C5.05-2.7,4.73-2.73,4.44-2.78C4.14-2.83,3.89-2.92,3.68-3.06
			C3.47-3.19,3.31-3.38,3.19-3.62C3.08-3.86,3.02-4.17,3.02-4.55v-5.55H0V0z"/>
	</g>
</g>
</svg>
