<svg version="1.2" baseProfile="tiny" xmlns="http://www.w3.org/2000/svg" width="159" height="40" viewBox="0 0 159 40"><g><path fill="#44CFC0" d="M102.623 17.407c0 1.013-.813 1.825-1.825 1.825-1.013 0-1.825-.813-1.825-1.825 0-1.013.813-1.825 1.825-1.825s1.825.812 1.825 1.825"/><path fill="#44CFC0" d="M99.353 12.897c0 1.013-.813 1.825-1.825 1.825-1 0-1.825-.813-1.825-1.825 0-1 .813-1.825 1.825-1.825s1.825.825 1.825 1.825"/><path fill="#44CFC0" d="M94.992 7.902c0 .762-.613 1.375-1.375 1.375s-1.388-.613-1.388-1.375.613-1.388 1.388-1.388c.762 0 1.375.625 1.375 1.388"/><path fill="#44CFC0" d="M109.532 7.902c0 .762-.613 1.375-1.375 1.375s-1.388-.613-1.388-1.375.625-1.388 1.388-1.388c.762 0 1.375.625 1.375 1.388"/><path fill="#44CFC0" d="M102.191 12.897c0 1.013.813 1.825 1.813 1.825 1.013 0 1.825-.813 1.825-1.825 0-1-.813-1.825-1.825-1.825-1 0-1.813.825-1.813 1.825"/><path fill="#44CFC0" d="M113.914 4.657c0 .663.537 1.212 1.212 1.212.663 0 1.2-.55 1.2-1.212 0-.663-.537-1.212-1.212-1.212-.663 0-1.2.55-1.2 1.212"/><path fill="#44CFC0" d="M120.957 6.405c0 .587.475 1.075 1.063 1.075.587 0 1.063-.475 1.063-1.075s-.462-1.075-1.063-1.075c-.587 0-1.063.488-1.063 1.075"/><path fill="#44CFC0" d="M88.513 4.657c0 .663-.537 1.212-1.212 1.212-.663 0-1.2-.55-1.2-1.212 0-.663.537-1.212 1.212-1.212.663 0 1.2.55 1.2 1.212"/><path fill="#44CFC0" d="M81.471 6.405c0 .587-.475 1.075-1.075 1.075-.587 0-1.063-.475-1.063-1.075s.488-1.075 1.063-1.075c.6 0 1.075.488 1.075 1.075"/><path fill="#fff" d="M6.495 25.34c0 .65.1 1.275.313 1.875.213.6.525 1.125.925 1.587.4.463.887.837 1.45 1.125.575.275 1.225.413 1.95.413.75 0 1.412-.15 1.987-.463.563-.313 1.037-.712 1.412-1.2s.65-1.012.837-1.587c.188-.575.288-1.125.288-1.675s-.088-1.113-.288-1.688c-.187-.6-.462-1.138-.837-1.625-.375-.488-.85-.887-1.425-1.2-.575-.313-1.25-.463-2.025-.463-.737 0-1.4.15-1.975.438-.575.275-1.062.65-1.438 1.125-.388.475-.675 1-.875 1.575-.2.587-.3 1.175-.3 1.762m-3.638-3.337c.225-.55.563-1.125 1-1.75.438-.613 1-1.2 1.675-1.737.675-.537 1.462-.988 2.387-1.325.913-.35 1.963-.525 3.138-.525 1.288 0 2.475.237 3.575.7 1.088.475 2.025 1.1 2.813 1.9.787.787 1.4 1.725 1.837 2.788.438 1.063.663 2.175.663 3.337 0 1.163-.213 2.275-.663 3.337-.425 1.063-1.05 1.988-1.838 2.788-.787.787-1.725 1.425-2.813 1.9-1.1.463-2.288.7-3.587.7-1.325 0-2.525-.25-3.613-.725-1.087-.488-2.025-1.125-2.788-1.925-.775-.8-1.375-1.7-1.8-2.725-.438-1.025-.65-2.075-.65-3.15 0-.563.05-1.137.138-1.75.1-.6.262-1.213.525-1.838"/><path fill="#fff" d="M27.97 30.706c.5 0 .95-.088 1.338-.275.387-.188.712-.425.988-.725.275-.3.488-.65.625-1.037.138-.388.213-.775.213-1.175 0-.375-.075-.762-.213-1.137-.125-.375-.325-.712-.6-1.025-.262-.313-.587-.563-.987-.763-.388-.2-.85-.3-1.363-.3-.512 0-.963.1-1.363.3-.387.2-.725.45-.987.763-.263.313-.475.65-.6 1.025-.138.375-.2.762-.2 1.137 0 .388.075.787.213 1.175s.35.737.625 1.037c.275.3.6.537.988.725.388.187.825.275 1.325.275m-6.775-9.525h3.55v1.388h.07500000000000001c.375-.488.887-.912 1.525-1.275.637-.362 1.438-.55 2.413-.55 1.125 0 2.075.225 2.85.663.763.45 1.4 1 1.9 1.675s.85 1.412 1.063 2.225c.225.813.338 1.575.338 2.313 0 .912-.15 1.762-.463 2.563-.3.8-.725 1.5-1.275 2.1-.538.6-1.188 1.075-1.938 1.425-.75.35-1.575.525-2.462.525-.575 0-1.075-.063-1.487-.188-.413-.125-.775-.263-1.087-.425-.313-.163-.563-.338-.762-.512-.2-.175-.35-.325-.463-.45v5.337h-3.775v-16.813z"/><path fill="#fff" d="M44.95 26.091c-.05-.175-.125-.4-.237-.65-.112-.25-.288-.488-.512-.712-.225-.225-.512-.413-.862-.563-.35-.15-.762-.225-1.25-.225s-.9.075-1.25.225c-.35.15-.637.337-.862.562-.225.225-.4.463-.512.713-.113.25-.188.475-.238.65h5.725zm3.337 3.75c-.3.712-.675 1.338-1.112 1.875-.438.537-.925.988-1.45 1.35-1.063.762-2.263 1.137-3.588 1.137-.9 0-1.762-.175-2.563-.512-.8-.338-1.512-.813-2.125-1.425-.613-.6-1.1-1.313-1.45-2.125-.375-.8-.55-1.675-.55-2.613 0-.875.163-1.725.488-2.55.325-.813.787-1.538 1.375-2.163.587-.625 1.288-1.125 2.1-1.5.813-.388 1.7-.575 2.65-.575.963 0 1.837.175 2.662.537.813.35 1.525.838 2.112 1.462.587.625 1.05 1.363 1.388 2.2.338.838.5 1.737.5 2.688 0 .263-.013.463-.025.588-.012.125-.037.275-.075.425h-9.45c.125.762.45 1.35 1.013 1.762.55.413 1.2.625 1.95.625.575 0 1.037-.112 1.388-.338.337-.237.65-.513.9-.85h3.862z"/><path fill="#fff" d="M49.903 21.181h3.525v1.338h.037c.1-.15.213-.325.375-.537.163-.2.375-.4.637-.575.263-.175.6-.338.988-.463.4-.125.862-.2 1.425-.2.613 0 1.212.112 1.813.313.613.225 1.075.487 1.438.787.163.15.338.325.512.537.175.2.325.463.463.787.138.313.25.7.338 1.15.088.45.138.988.138 1.6v7.887h-3.775v-6.887c0-.225-.013-.488-.037-.787-.025-.3-.087-.587-.212-.85-.112-.275-.313-.5-.575-.7-.275-.187-.65-.287-1.162-.287-.537 0-.963.1-1.25.313-.275.2-.488.437-.625.725-.138.275-.225.563-.238.862-.025.3-.037.538-.037.737v6.863h-3.775v-12.613z"/><path fill="#fff" d="M70.844 21.887l-.1-.488c-.037-.188-.112-.375-.213-.55-.112-.175-.263-.313-.45-.425-.188-.112-.45-.175-.787-.175-.375 0-.712.125-1.025.362-.3.25-.45.563-.45.95 0 .25.037.475.112.637.075.163.237.338.488.512.25.175.6.375 1.05.587.45.225 1.063.5 1.813.825.787.35 1.438.7 1.938 1.075.512.362.912.737 1.2 1.137.3.4.5.813.613 1.238.112.425.175.887.175 1.375 0 .625-.1 1.238-.3 1.85-.175.625-.5 1.175-.95 1.65-.45.488-1.063.888-1.813 1.2-.75.313-1.675.462-2.775.462-1.212 0-2.212-.175-3-.537-.787-.35-1.412-.8-1.863-1.325-.463-.525-.775-1.112-.95-1.725-.175-.625-.263-1.212-.263-1.75v-.55h4.275c0 .488.063.875.188 1.188.125.3.288.537.475.7.188.163.388.275.575.325.2.05.362.088.5.088.512 0 .912-.175 1.2-.512.288-.338.425-.712.425-1.1 0-.275-.05-.512-.15-.7-.1-.2-.275-.375-.525-.55-.25-.175-.587-.35-1.013-.537-.4-.188-.937-.425-1.587-.688-.3-.125-.688-.3-1.15-.513-.462-.225-.912-.525-1.35-.887-.438-.375-.813-.837-1.138-1.4-.313-.563-.475-1.238-.475-2.025 0-.787.175-1.487.525-2.1.35-.613.8-1.137 1.363-1.55.563-.425 1.188-.75 1.887-.963.7-.225 1.4-.325 2.112-.325.838 0 1.663.15 2.487.463.825.313 1.512.787 2.063 1.45.238.287.425.587.575.887.15.287.262.575.338.85.075.287.125.55.137.813.025.25.05.512.062.75h-4.25z"/><path fill="#fff" d="M82.982 30.706c.5 0 .938-.088 1.325-.275.388-.188.712-.425.988-.725.275-.3.475-.65.625-1.037.138-.388.213-.775.213-1.175 0-.375-.075-.762-.2-1.137-.137-.375-.338-.712-.6-1.025-.262-.313-.6-.563-.987-.763-.4-.2-.85-.3-1.363-.3-.525 0-.975.1-1.375.3-.387.2-.712.45-.975.763-.275.313-.475.65-.613 1.037-.138.375-.2.762-.2 1.137 0 .388.075.787.225 1.175.138.388.35.737.625 1.037.275.3.6.537.988.725.375.175.825.263 1.325.263m-6.775-9.525h3.55v1.388h.07500000000000001c.375-.488.887-.912 1.525-1.275.637-.362 1.438-.55 2.413-.55 1.125 0 2.075.225 2.85.663.763.45 1.4 1 1.888 1.675.5.675.85 1.412 1.075 2.225.213.813.325 1.575.325 2.313 0 .912-.15 1.762-.45 2.563-.3.8-.725 1.5-1.275 2.1-.538.6-1.188 1.075-1.938 1.425-.75.35-1.575.525-2.462.525-.575 0-1.075-.063-1.487-.188-.413-.125-.775-.263-1.087-.425-.313-.163-.563-.338-.762-.512-.213-.175-.363-.325-.463-.45v5.337h-3.775v-16.813z"/><path fill="#fff" d="M91.118 21.181h3.538v1.338h.05c.075-.15.175-.325.313-.537.138-.2.325-.4.563-.575.237-.175.537-.338.912-.463s.825-.2 1.375-.2v3.8c-.438.013-.837.05-1.2.112-.375.063-.688.175-.95.35-.262.162-.475.4-.613.7-.15.3-.212.687-.212 1.162v6.938h-3.775v-12.625z"/><path fill="#44CFC0" d="M102.713 33.8h-3.775v-12.613h3.775v12.613z"/><path fill="#fff" d="M104.524 21.181h3.525v1.338h.05c.088-.15.213-.325.375-.537.163-.2.375-.4.637-.575.263-.175.6-.338.988-.463s.862-.2 1.425-.2c.6 0 1.212.112 1.8.313.6.225 1.075.487 1.425.787.163.15.338.325.512.537.175.2.325.463.463.787.138.313.25.7.338 1.15.1.45.138.988.138 1.6v7.887h-3.762v-6.887c0-.225-.013-.488-.037-.787-.025-.3-.087-.587-.212-.85-.125-.275-.313-.5-.575-.7-.275-.187-.65-.287-1.15-.287-.55 0-.963.1-1.25.313-.287.2-.5.437-.637.725-.138.275-.213.563-.238.862-.025.3-.037.538-.037.737v6.863h-3.775v-12.613z"/><path fill="#fff" d="M118.116 16.978h3.775v8.775h.05l3.5-4.575h4.475l-4.75 5.55 4.612 7.063h-4.275l-3.563-6.063h-.05v6.075h-3.775v-16.825z"/><path fill="#fff" d="M130.5 16.975h3.775v16.825h-3.775v-16.825z"/><path fill="#fff" d="M144.912 26.091c-.05-.175-.125-.4-.237-.65-.112-.25-.288-.488-.512-.712-.225-.225-.512-.413-.862-.563-.35-.15-.762-.225-1.25-.225s-.9.075-1.25.225c-.35.15-.637.337-.862.562-.225.225-.4.463-.512.713-.113.25-.2.475-.238.65h5.725zm3.337 3.75c-.3.712-.675 1.338-1.112 1.875-.438.537-.925.988-1.45 1.35-1.063.762-2.25 1.137-3.588 1.137-.912 0-1.762-.175-2.563-.512-.8-.338-1.512-.813-2.125-1.425-.613-.6-1.1-1.313-1.45-2.125-.375-.8-.55-1.675-.55-2.613 0-.875.163-1.725.488-2.55.325-.813.775-1.538 1.375-2.163.587-.625 1.3-1.125 2.1-1.5.813-.388 1.688-.575 2.65-.575.95 0 1.837.175 2.662.537.813.35 1.525.838 2.112 1.462.587.625 1.05 1.363 1.388 2.2.325.838.5 1.737.5 2.688 0 .263-.013.463-.025.588l-.062.425h-9.45c.125.762.45 1.35 1.013 1.762.55.413 1.2.625 1.938.625.575 0 1.037-.112 1.388-.338.337-.237.65-.513.9-.85h3.862z"/><path fill="#fff" d="M149.845 21.181h3.55v1.338h.05l.313-.537c.138-.2.325-.4.563-.575.225-.175.525-.338.9-.463s.825-.2 1.375-.2v3.8c-.438.013-.837.05-1.2.112-.375.063-.688.175-.95.35-.262.162-.463.4-.613.7-.137.3-.212.687-.212 1.162v6.938h-3.775v-12.625z"/></g></svg>