<?xml version="1.0" encoding="UTF-8" standalone="no"?>
<!-- Created with Inkscape (http://www.inkscape.org/) -->

<svg
   xmlns:dc="http://purl.org/dc/elements/1.1/"
   xmlns:cc="http://creativecommons.org/ns#"
   xmlns:rdf="http://www.w3.org/1999/02/22-rdf-syntax-ns#"
   xmlns:svg="http://www.w3.org/2000/svg"
   xmlns="http://www.w3.org/2000/svg"
   version="1.1"
   width="159"
   height="40"
   id="svg3004"
   xml:space="preserve"><metadata
     id="metadata3010"><rdf:RDF><cc:Work
         rdf:about=""><dc:format>image/svg+xml</dc:format><dc:type
           rdf:resource="http://purl.org/dc/dcmitype/StillImage" /><dc:title></dc:title></cc:Work></rdf:RDF></metadata><defs
     id="defs3008"><clipPath
       id="clipPath3038"><path
         d="m 0,1570.834 2207.963,0 L 2207.963,0 0,0 0,1570.834 z"
         id="path3040" /></clipPath></defs><g
     transform="matrix(1.25,0,0,-1.25,0,39.999922)"
     id="g3012"><g
       transform="translate(82.098338,18.074491)"
       id="g13970"><path
         d="m 0,0 c 0,-0.808 -0.649,-1.459 -1.457,-1.459 -0.808,0 -1.458,0.651 -1.458,1.459 0,0.808 0.65,1.457 1.458,1.457 C -0.649,1.457 0,0.808 0,0"
         id="path13972"
         style="fill:#44cfc0;fill-opacity:1;fill-rule:nonzero;stroke:none" /></g><g
       transform="translate(79.482138,21.682391)"
       id="g13974"><path
         d="m 0,0 c 0,-0.808 -0.652,-1.458 -1.462,-1.458 -0.804,0 -1.457,0.65 -1.457,1.458 0,0.803 0.653,1.458 1.457,1.458 C -0.652,1.458 0,0.803 0,0"
         id="path13976"
         style="fill:#44cfc0;fill-opacity:1;fill-rule:nonzero;stroke:none" /></g><g
       transform="translate(75.993838,25.678491)"
       id="g13978"><path
         d="m 0,0 c 0,-0.609 -0.494,-1.104 -1.104,-1.104 -0.615,0 -1.107,0.495 -1.107,1.104 0,0.61 0.492,1.105 1.107,1.105 C -0.494,1.105 0,0.61 0,0"
         id="path13980"
         style="fill:#44cfc0;fill-opacity:1;fill-rule:nonzero;stroke:none" /></g><g
       transform="translate(87.625738,25.678491)"
       id="g13982"><path
         d="m 0,0 c 0,-0.609 -0.495,-1.104 -1.104,-1.104 -0.612,0 -1.108,0.495 -1.108,1.104 0,0.61 0.496,1.105 1.108,1.105 C -0.495,1.105 0,0.61 0,0"
         id="path13984"
         style="fill:#44cfc0;fill-opacity:1;fill-rule:nonzero;stroke:none" /></g><g
       transform="translate(81.752638,21.682391)"
       id="g13986"><path
         d="m 0,0 c 0,-0.808 0.653,-1.458 1.455,-1.458 0.81,0 1.464,0.65 1.464,1.458 0,0.803 -0.654,1.458 -1.464,1.458 C 0.653,1.458 0,0.803 0,0"
         id="path13988"
         style="fill:#44cfc0;fill-opacity:1;fill-rule:nonzero;stroke:none" /></g><g
       transform="translate(91.131538,28.274191)"
       id="g13990"><path
         d="M 0,0 C 0,-0.533 0.432,-0.966 0.967,-0.966 1.5,-0.966 1.932,-0.533 1.932,0 1.932,0.534 1.5,0.969 0.967,0.969 0.432,0.969 0,0.534 0,0"
         id="path13992"
         style="fill:#44cfc0;fill-opacity:1;fill-rule:nonzero;stroke:none" /></g><g
       transform="translate(96.765338,26.875791)"
       id="g13994"><path
         d="M 0,0 C 0,-0.471 0.384,-0.856 0.855,-0.856 1.326,-0.856 1.71,-0.471 1.71,0 1.71,0.471 1.326,0.855 0.855,0.855 0.384,0.855 0,0.471 0,0"
         id="path13996"
         style="fill:#44cfc0;fill-opacity:1;fill-rule:nonzero;stroke:none" /></g><g
       transform="translate(70.810238,28.274191)"
       id="g13998"><path
         d="m 0,0 c 0,-0.533 -0.432,-0.966 -0.967,-0.966 -0.533,0 -0.967,0.433 -0.967,0.966 0,0.534 0.434,0.969 0.967,0.969 C -0.432,0.969 0,0.534 0,0"
         id="path14000"
         style="fill:#44cfc0;fill-opacity:1;fill-rule:nonzero;stroke:none" /></g><g
       transform="translate(65.176538,26.875791)"
       id="g14002"><path
         d="m 0,0 c 0,-0.471 -0.384,-0.856 -0.858,-0.856 -0.468,0 -0.854,0.385 -0.854,0.856 0,0.471 0.386,0.855 0.854,0.855 C -0.384,0.855 0,0.471 0,0"
         id="path14004"
         style="fill:#44cfc0;fill-opacity:1;fill-rule:nonzero;stroke:none" /></g><g
       transform="translate(5.196038,11.728291)"
       id="g14006"
       style="fill:#ffffff"><path
         d="m 0,0 c 0,-0.521 0.083,-1.023 0.252,-1.502 0.172,-0.479 0.417,-0.903 0.739,-1.273 0.321,-0.369 0.709,-0.666 1.163,-0.89 0.453,-0.223 0.972,-0.336 1.554,-0.336 0.607,0 1.137,0.124 1.591,0.372 0.454,0.248 0.831,0.566 1.128,0.956 0.298,0.388 0.52,0.81 0.672,1.271 0.154,0.463 0.228,0.907 0.228,1.346 0,0.436 -0.074,0.887 -0.228,1.354 C 6.947,1.766 6.725,2.195 6.427,2.59 6.13,2.983 5.751,3.304 5.291,3.554 4.83,3.801 4.293,3.927 3.671,3.927 3.078,3.927 2.552,3.81 2.091,3.579 1.63,3.352 1.245,3.047 0.937,2.672 0.624,2.297 0.393,1.875 0.235,1.41 0.078,0.939 0,0.47 0,0 m -2.909,2.672 c 0.182,0.435 0.447,0.903 0.8,1.4 0.349,0.494 0.796,0.959 1.337,1.391 0.537,0.429 1.175,0.786 1.908,1.063 0.733,0.278 1.574,0.418 2.518,0.418 1.03,0 1.98,-0.188 2.856,-0.565 0.873,-0.375 1.621,-0.88 2.254,-1.517 0.628,-0.634 1.121,-1.377 1.472,-2.226 0.353,-0.849 0.527,-1.741 0.527,-2.675 0,-0.932 -0.174,-1.824 -0.527,-2.673 C 9.885,-3.562 9.392,-4.302 8.764,-4.938 8.131,-5.573 7.383,-6.081 6.51,-6.457 5.634,-6.833 4.679,-7.019 3.636,-7.019 c -1.056,0 -2.018,0.195 -2.892,0.581 -0.874,0.386 -1.618,0.9 -2.235,1.536 -0.618,0.636 -1.098,1.365 -1.439,2.183 -0.339,0.818 -0.508,1.658 -0.508,2.518 0,0.449 0.036,0.914 0.112,1.4 0.072,0.484 0.209,0.975 0.417,1.473"
         id="path14008"
         style="fill:#ffffff;fill-opacity:1;fill-rule:nonzero;stroke:none" /></g><g
       transform="translate(22.375738,7.435391)"
       id="g14010"
       style="fill:#ffffff"><path
         d="M 0,0 C 0.402,0 0.758,0.072 1.067,0.219 1.376,0.366 1.638,0.558 1.856,0.799 2.073,1.043 2.243,1.318 2.358,1.628 2.471,1.936 2.53,2.25 2.53,2.563 2.53,2.868 2.475,3.171 2.365,3.474 2.256,3.776 2.097,4.051 1.884,4.299 1.671,4.549 1.408,4.751 1.093,4.91 0.778,5.067 0.413,5.147 0,5.147 -0.411,5.147 -0.773,5.067 -1.091,4.91 -1.403,4.751 -1.669,4.549 -1.878,4.299 -2.093,4.051 -2.254,3.776 -2.361,3.474 -2.471,3.171 -2.524,2.868 -2.524,2.563 c 0,-0.313 0.055,-0.627 0.172,-0.935 0.115,-0.31 0.28,-0.585 0.498,-0.829 C -1.635,0.558 -1.37,0.366 -1.061,0.219 -0.753,0.072 -0.397,0 0,0 m -5.417,7.62 2.836,0 0,-1.109 0.019,0 0.038,0 c 0.302,0.386 0.71,0.727 1.216,1.018 0.512,0.289 1.153,0.436 1.927,0.436 0.899,0 1.659,-0.176 2.283,-0.529 C 3.524,7.084 4.034,6.642 4.429,6.1 4.825,5.56 5.108,4.968 5.282,4.32 5.46,3.67 5.548,3.056 5.548,2.473 5.548,1.746 5.427,1.059 5.183,0.42 4.941,-0.223 4.603,-0.784 4.164,-1.264 3.729,-1.743 3.21,-2.121 2.612,-2.398 2.01,-2.678 1.353,-2.818 0.64,-2.818 c -0.462,0 -0.86,0.049 -1.194,0.146 -0.333,0.097 -0.622,0.211 -0.87,0.344 -0.248,0.135 -0.454,0.268 -0.611,0.411 -0.157,0.138 -0.279,0.257 -0.363,0.355 l 0,-4.273 -3.019,0 0,13.455 z"
         id="path14012"
         style="fill:#ffffff;fill-opacity:1;fill-rule:nonzero;stroke:none" /></g><g
       transform="translate(35.959738,11.127291)"
       id="g14014"
       style="fill:#ffffff"><path
         d="M 0,0 C -0.035,0.145 -0.101,0.317 -0.189,0.518 -0.28,0.719 -0.417,0.909 -0.601,1.091 -0.782,1.271 -1.012,1.423 -1.291,1.545 -1.569,1.664 -1.904,1.726 -2.29,1.726 -2.679,1.726 -3.012,1.664 -3.294,1.545 -3.571,1.423 -3.801,1.271 -3.984,1.091 -4.164,0.909 -4.299,0.719 -4.39,0.518 -4.48,0.317 -4.544,0.145 -4.583,0 L 0,0 z M 2.672,-3.001 C 2.43,-3.57 2.133,-4.069 1.781,-4.5 1.43,-4.929 1.042,-5.293 0.618,-5.582 c -0.847,-0.607 -1.805,-0.91 -2.873,-0.91 -0.725,0 -1.412,0.136 -2.054,0.411 -0.642,0.271 -1.211,0.65 -1.7,1.136 -0.492,0.484 -0.88,1.05 -1.163,1.698 -0.285,0.65 -0.428,1.351 -0.428,2.1 0,0.705 0.13,1.384 0.391,2.037 0.26,0.655 0.628,1.231 1.099,1.728 0.473,0.496 1.033,0.897 1.683,1.198 0.649,0.306 1.356,0.457 2.117,0.457 0.765,0 1.474,-0.143 2.13,-0.427 C 0.474,3.562 1.037,3.171 1.509,2.675 1.983,2.175 2.35,1.59 2.616,0.917 2.885,0.245 3.019,-0.474 3.019,-1.237 3.019,-1.442 3.013,-1.598 3.002,-1.7 2.987,-1.804 2.969,-1.917 2.944,-2.036 l -7.562,0 c 0.097,-0.608 0.365,-1.078 0.807,-1.41 0.444,-0.334 0.96,-0.501 1.556,-0.501 0.462,0 0.83,0.093 1.109,0.274 0.279,0.182 0.523,0.406 0.729,0.672 l 3.089,0 z"
         id="path14016"
         style="fill:#ffffff;fill-opacity:1;fill-rule:nonzero;stroke:none" /></g><g
       transform="translate(39.922638,15.054991)"
       id="g14018"
       style="fill:#ffffff"><path
         d="m 0,0 2.819,0 0,-1.073 0.035,0 c 0.075,0.12 0.174,0.264 0.3,0.427 0.13,0.163 0.298,0.318 0.51,0.462 0.211,0.145 0.476,0.272 0.792,0.373 0.315,0.104 0.695,0.156 1.145,0.156 0.485,0 0.966,-0.086 1.445,-0.255 0.479,-0.169 0.857,-0.377 1.139,-0.619 0.133,-0.121 0.268,-0.264 0.407,-0.427 0.139,-0.165 0.263,-0.372 0.374,-0.628 0.107,-0.254 0.198,-0.559 0.27,-0.916 0.075,-0.357 0.112,-0.786 0.112,-1.283 l 0,-6.309 -3.021,0 0,5.509 c 0,0.181 -0.008,0.392 -0.026,0.628 -0.019,0.236 -0.074,0.464 -0.174,0.68 -0.095,0.22 -0.248,0.404 -0.463,0.556 -0.213,0.151 -0.517,0.228 -0.919,0.228 -0.433,0 -0.768,-0.084 -0.998,-0.247 C 3.516,-2.899 3.347,-3.094 3.237,-3.32 3.128,-3.543 3.065,-3.774 3.047,-4.011 3.028,-4.246 3.02,-4.444 3.02,-4.6 l 0,-5.492 -3.02,0 L 0,0 z"
         id="path14020"
         style="fill:#ffffff;fill-opacity:1;fill-rule:nonzero;stroke:none" /></g><g
       transform="translate(56.675538,14.490091)"
       id="g14022"
       style="fill:#ffffff"><path
         d="m 0,0 c -0.026,0.108 -0.053,0.24 -0.084,0.391 -0.027,0.151 -0.089,0.298 -0.17,0.436 -0.088,0.14 -0.206,0.255 -0.357,0.345 -0.151,0.093 -0.362,0.138 -0.628,0.138 -0.302,0 -0.574,-0.097 -0.818,-0.291 -0.244,-0.195 -0.362,-0.45 -0.362,-0.764 0,-0.205 0.029,-0.375 0.091,-0.51 0.058,-0.133 0.19,-0.268 0.392,-0.409 0.198,-0.14 0.48,-0.297 0.844,-0.471 0.363,-0.179 0.849,-0.399 1.454,-0.664 0.63,-0.281 1.147,-0.563 1.554,-0.856 0.406,-0.29 0.727,-0.592 0.964,-0.908 0.238,-0.316 0.399,-0.646 0.492,-0.992 0.091,-0.345 0.136,-0.711 0.136,-1.1 0,-0.496 -0.078,-0.991 -0.237,-1.481 C 3.113,-7.626 2.854,-8.066 2.49,-8.455 2.126,-8.843 1.643,-9.162 1.044,-9.41 c -0.6,-0.249 -1.343,-0.37 -2.226,-0.37 -0.97,0 -1.773,0.141 -2.4,0.427 -0.634,0.284 -1.128,0.639 -1.493,1.061 -0.363,0.424 -0.615,0.887 -0.752,1.382 -0.141,0.497 -0.211,0.967 -0.211,1.4 l 0,0.438 3.419,0 c 0,-0.388 0.05,-0.702 0.153,-0.946 0.103,-0.241 0.232,-0.431 0.382,-0.565 0.151,-0.133 0.306,-0.221 0.463,-0.262 0.159,-0.042 0.293,-0.065 0.402,-0.065 0.411,0 0.734,0.138 0.965,0.411 0.228,0.271 0.342,0.566 0.342,0.88 0,0.22 -0.04,0.405 -0.118,0.565 -0.079,0.156 -0.217,0.303 -0.419,0.436 -0.197,0.136 -0.468,0.276 -0.807,0.427 -0.339,0.151 -0.77,0.337 -1.289,0.555 -0.243,0.095 -0.553,0.236 -0.921,0.409 -0.37,0.176 -0.729,0.414 -1.081,0.709 -0.352,0.298 -0.654,0.671 -0.91,1.118 -0.254,0.45 -0.379,0.987 -0.379,1.619 0,0.63 0.137,1.19 0.418,1.683 0.278,0.49 0.641,0.906 1.091,1.244 0.446,0.341 0.95,0.599 1.508,0.772 0.557,0.176 1.12,0.265 1.69,0.265 0.665,0 1.33,-0.125 1.989,-0.373 C 1.523,3.562 2.07,3.175 2.507,2.654 2.701,2.412 2.855,2.172 2.971,1.935 3.085,1.701 3.176,1.47 3.235,1.245 3.295,1.021 3.335,0.807 3.352,0.601 3.372,0.396 3.387,0.194 3.398,0 L 0,0 z"
         id="path14024"
         style="fill:#ffffff;fill-opacity:1;fill-rule:nonzero;stroke:none" /></g><g
       transform="translate(66.385438,7.435391)"
       id="g14026"
       style="fill:#ffffff"><path
         d="M 0,0 C 0.396,0 0.754,0.072 1.062,0.219 1.37,0.366 1.634,0.558 1.854,0.799 2.07,1.043 2.237,1.318 2.353,1.628 2.467,1.936 2.526,2.25 2.526,2.563 2.526,2.868 2.469,3.171 2.363,3.474 2.252,3.776 2.091,4.051 1.88,4.299 1.669,4.549 1.404,4.751 1.087,4.91 0.774,5.067 0.407,5.147 0,5.147 -0.417,5.147 -0.779,5.067 -1.095,4.91 -1.407,4.751 -1.673,4.549 -1.884,4.299 -2.097,4.051 -2.256,3.776 -2.365,3.474 -2.477,3.171 -2.53,2.868 -2.53,2.563 -2.53,2.25 -2.471,1.936 -2.355,1.628 -2.243,1.318 -2.074,1.043 -1.857,0.799 -1.641,0.558 -1.374,0.366 -1.066,0.219 -0.756,0.072 -0.401,0 0,0 m -5.421,7.62 2.837,0 0,-1.109 0.019,0 0.035,0 c 0.302,0.386 0.71,0.727 1.218,1.018 0.51,0.289 1.153,0.436 1.927,0.436 0.9,0 1.657,-0.176 2.281,-0.529 C 3.522,7.084 4.032,6.642 4.423,6.1 4.819,5.56 5.103,4.968 5.282,4.32 5.454,3.67 5.544,3.056 5.544,2.473 5.544,1.746 5.423,1.059 5.181,0.42 4.937,-0.223 4.599,-0.784 4.163,-1.264 3.725,-1.743 3.208,-2.121 2.607,-2.398 c -0.599,-0.28 -1.256,-0.42 -1.973,-0.42 -0.461,0 -0.858,0.049 -1.194,0.146 -0.331,0.097 -0.622,0.211 -0.87,0.344 -0.248,0.135 -0.452,0.268 -0.607,0.411 -0.159,0.138 -0.28,0.257 -0.365,0.355 l 0,-4.273 -3.019,0 0,13.455 z"
         id="path14028"
         style="fill:#ffffff;fill-opacity:1;fill-rule:nonzero;stroke:none" /></g><g
       transform="translate(72.894238,15.054991)"
       id="g14030"
       style="fill:#ffffff"><path
         d="m 0,0 2.833,0 0,-1.073 0.039,0 c 0.06,0.12 0.145,0.264 0.254,0.427 0.109,0.163 0.256,0.318 0.446,0.462 C 3.76,-0.039 4,0.088 4.299,0.189 4.595,0.293 4.959,0.345 5.398,0.345 l 0,-3.037 C 5.049,-2.703 4.727,-2.735 4.436,-2.782 4.145,-2.83 3.893,-2.923 3.68,-3.055 3.467,-3.188 3.302,-3.376 3.188,-3.618 3.074,-3.862 3.017,-4.171 3.017,-4.546 l 0,-5.546 -3.017,0 L 0,0 z"
         id="path14032"
         style="fill:#ffffff;fill-opacity:1;fill-rule:nonzero;stroke:none" /></g><path
       d="m 82.165438,4.9623907 -3.02,0 0,10.0920003 3.02,0 0,-10.0920003 z"
       id="path14034"
       style="fill:#44cfc0;fill-opacity:1;fill-rule:nonzero;stroke:none" /><g
       transform="translate(83.618838,15.054991)"
       id="g14036"
       style="fill:#ffffff"><path
         d="m 0,0 2.819,0 0,-1.073 0.035,0 c 0.073,0.12 0.172,0.264 0.302,0.427 0.128,0.163 0.297,0.318 0.51,0.462 0.211,0.145 0.474,0.272 0.791,0.373 0.313,0.104 0.694,0.156 1.145,0.156 0.484,0 0.966,-0.086 1.444,-0.255 0.479,-0.169 0.859,-0.377 1.137,-0.619 0.133,-0.121 0.27,-0.264 0.411,-0.427 0.137,-0.165 0.261,-0.372 0.371,-0.628 0.109,-0.254 0.2,-0.559 0.271,-0.916 0.075,-0.357 0.112,-0.786 0.112,-1.283 l 0,-6.309 -3.019,0 0,5.509 c 0,0.181 -0.009,0.392 -0.029,0.628 -0.017,0.236 -0.074,0.464 -0.171,0.68 -0.098,0.22 -0.252,0.404 -0.465,0.556 -0.211,0.151 -0.517,0.228 -0.917,0.228 -0.436,0 -0.77,-0.084 -1,-0.247 C 3.518,-2.899 3.346,-3.094 3.238,-3.32 3.129,-3.543 3.065,-3.774 3.047,-4.011 3.026,-4.246 3.02,-4.444 3.02,-4.6 l 0,-5.492 -3.02,0 L 0,0 z"
         id="path14038"
         style="fill:#ffffff;fill-opacity:1;fill-rule:nonzero;stroke:none" /></g><g
       transform="translate(94.492938,18.417291)"
       id="g14040"
       style="fill:#ffffff"><path
         d="m 0,0 3.018,0 0,-7.019 0.038,0 2.8,3.657 3.579,0 -3.799,-4.438 3.691,-5.655 -3.417,0 -2.854,4.856 -0.038,0 0,-4.856 -3.018,0 L 0,0 z"
         id="path14042"
         style="fill:#ffffff;fill-opacity:1;fill-rule:nonzero;stroke:none" /></g><path
       d="m 104.40244,18.417391 3.021,0 0,-13.4550003 -3.021,0 0,13.4550003 z"
       id="path14044"
       style="fill:#ffffff;fill-opacity:1;fill-rule:nonzero;stroke:none" /><g
       transform="translate(115.92944,11.127291)"
       id="g14046"
       style="fill:#ffffff"><path
         d="m 0,0 c -0.037,0.145 -0.101,0.317 -0.191,0.518 -0.09,0.201 -0.226,0.391 -0.408,0.573 -0.183,0.18 -0.415,0.332 -0.694,0.454 -0.277,0.119 -0.611,0.181 -0.998,0.181 -0.388,0 -0.723,-0.062 -1,-0.181 C -3.571,1.423 -3.799,1.271 -3.982,1.091 -4.162,0.909 -4.301,0.719 -4.392,0.518 -4.48,0.317 -4.547,0.145 -4.58,0 L 0,0 z M 2.672,-3.001 C 2.43,-3.57 2.133,-4.069 1.783,-4.5 1.432,-4.929 1.043,-5.293 0.618,-5.582 c -0.849,-0.607 -1.805,-0.91 -2.872,-0.91 -0.728,0 -1.412,0.136 -2.055,0.411 -0.642,0.271 -1.209,0.65 -1.702,1.136 -0.488,0.484 -0.878,1.05 -1.163,1.698 -0.285,0.65 -0.426,1.351 -0.426,2.1 0,0.705 0.128,1.384 0.391,2.037 0.26,0.655 0.625,1.231 1.099,1.728 0.473,0.496 1.035,0.897 1.683,1.198 0.649,0.306 1.354,0.457 2.117,0.457 0.765,0 1.474,-0.143 2.128,-0.427 C 0.471,3.562 1.035,3.171 1.509,2.675 1.981,2.175 2.352,1.59 2.619,0.917 2.884,0.245 3.019,-0.474 3.019,-1.237 3.019,-1.442 3.013,-1.598 3,-1.7 2.987,-1.804 2.971,-1.917 2.946,-2.036 l -7.563,0 c 0.096,-0.608 0.364,-1.078 0.808,-1.41 0.444,-0.334 0.96,-0.501 1.555,-0.501 0.459,0 0.829,0.093 1.108,0.274 0.281,0.182 0.522,0.406 0.729,0.672 l 3.089,0 z"
         id="path14048"
         style="fill:#ffffff;fill-opacity:1;fill-rule:nonzero;stroke:none" /></g><g
       transform="translate(119.87574,15.054991)"
       id="g14050"
       style="fill:#ffffff"><path
         d="m 0,0 2.836,0 0,-1.073 0.037,0 c 0.061,0.12 0.145,0.264 0.252,0.427 0.11,0.163 0.261,0.318 0.448,0.462 0.187,0.145 0.43,0.272 0.728,0.373 0.296,0.104 0.663,0.156 1.098,0.156 l 0,-3.037 C 5.047,-2.703 4.727,-2.735 4.437,-2.782 4.144,-2.83 3.894,-2.923 3.681,-3.055 3.47,-3.188 3.307,-3.376 3.191,-3.618 3.077,-3.862 3.018,-4.171 3.018,-4.546 l 0,-5.546 -3.018,0 L 0,0 z"
         id="path14052"
         style="fill:#ffffff;fill-opacity:1;fill-rule:nonzero;stroke:none" /></g></g></svg>